HIERARCHY
ROOT Hips
{
	OFFSET 0.00000 0.00000 0.00000
	CHANNELS 6 Xposition Yposition Zposition Zrotation Yrotation Xrotation 
	JOINT LHipJoint
	{
		OFFSET 0 0 0
		CHANNELS 3 Zrotation Yrotation Xrotation
		JOINT LeftHip
		{
			OFFSET 1.62964 -1.40469 0.78906
			CHANNELS 3 Zrotation Yrotation Xrotation
			JOINT LeftKnee
			{
				OFFSET 2.29640 -6.30932 0.00000
				CHANNELS 3 Zrotation Yrotation Xrotation
				JOINT LeftAnkle
				{
					OFFSET 2.29451 -6.30412 0.00000
					CHANNELS 3 Zrotation Yrotation Xrotation
					JOINT LeftToe
					{
						OFFSET 0.03611 -0.09921 1.56387
						CHANNELS 3 Zrotation Yrotation Xrotation
						End Site
						{
							OFFSET 0.00000 -0.00000 0.80291
						}
					}
				}
			}
		}
	}
	JOINT RHipJoint
	{
		OFFSET 0 0 0
		CHANNELS 3 Zrotation Yrotation Xrotation
		JOINT RightHip
		{
			OFFSET -1.73712 -1.40469 0.78906
			CHANNELS 3 Zrotation Yrotation Xrotation
			JOINT RightKnee
			{
				OFFSET -2.28137 -6.26801 0.00000
				CHANNELS 3 Zrotation Yrotation Xrotation
				JOINT RightAnkle
				{
					OFFSET -2.28681 -6.28298 0.00000
					CHANNELS 3 Zrotation Yrotation Xrotation
					JOINT RightToe
					{
						OFFSET -0.15927 -0.43759 1.61103
						CHANNELS 3 Zrotation Yrotation Xrotation
						End Site
						{
							OFFSET -0.00000 -0.00000 0.84630
						}
					}
				}
			}
		}
	}
	JOINT lowerback
	{
		OFFSET 0 0 0
		CHANNELS 3 Zrotation Yrotation Xrotation
		JOINT Chest
		{
			OFFSET -0.04227 2.04338 -0.00225
			CHANNELS 3 Zrotation Yrotation Xrotation
			JOINT Chest2
			{
				OFFSET -0.02148 2.04482 -0.04273
				CHANNELS 3 Zrotation Yrotation Xrotation
				JOINT lowerneck
				{
					OFFSET 0 0 0
					CHANNELS 3 Zrotation Yrotation Xrotation
					JOINT Neck
					{
						OFFSET 0.09180 1.44629 0.19359
						CHANNELS 3 Zrotation Yrotation Xrotation
						JOINT Head
						{
							OFFSET 0.00887 1.40645 0.14750
							CHANNELS 3 Zrotation Yrotation Xrotation
							End Site
							{
								OFFSET -0.00669 1.50671 0.03707
							}
						}
					}
				}
				JOINT LeftCollar
				{
					OFFSET 0 0 0
					CHANNELS 3 Zrotation Yrotation Xrotation
					JOINT LeftShoulder
					{
						OFFSET 2.17674 1.86763 -0.06520
CHANNELS 3 Zrotation Xrotation Yrotation
						JOINT LeftElbow
						{
OFFSET 0 -4.657760 0.000000
CHANNELS 3 Zrotation Xrotation Yrotation
							JOINT LeftWrist
							{
OFFSET 0 -3.555390 0.000000
CHANNELS 3 Zrotation Xrotation Yrotation
								JOINT lhand
								{
									OFFSET 0 0 0
CHANNELS 3 Zrotation Xrotation Yrotation
									JOINT LFingers
									{
OFFSET 0 -0.707260 0.000000
CHANNELS 3 Zrotation Xrotation Yrotation
										End Site
										{
OFFSET 0 -0.570220 0.000000
										}
									}
								}
								JOINT LThumb
								{
OFFSET 0 0.000000 0.000000
CHANNELS 3 Zrotation Xrotation Yrotation
									End Site
									{
OFFSET 0 -0.578920 0.578920
									}
								}
							}
						}
					}
				}
				JOINT RightCollar
				{
					OFFSET 0 0 0
					CHANNELS 3 Zrotation Yrotation Xrotation
					JOINT RightShoulder
					{
						OFFSET -2.80694 1.55459 -0.32496
CHANNELS 3 Zrotation Xrotation Yrotation
						JOINT RightElbow
						{
OFFSET 0 -4.719250 -0.000000
CHANNELS 3 Zrotation Xrotation Yrotation
							JOINT RightWrist
							{
OFFSET 0 -3.569900 0.000000
CHANNELS 3 Zrotation Xrotation Yrotation
								JOINT rhand
								{
									OFFSET 0 0 0
CHANNELS 3 Zrotation Xrotation Yrotation
									JOINT RFingers
									{
OFFSET 0 -0.507760 0.000000
CHANNELS 3 Zrotation Xrotation Yrotation
										End Site
										{
OFFSET 0 -0.409370 0.000000
										}
									}
								}
								JOINT RThumb
								{
OFFSET 0 0.000000 0.000000
CHANNELS 3 Zrotation Xrotation Yrotation
									End Site
									{
OFFSET 0 -0.415620 0.415620
									}
								}
							}
						}
					}
				}
			}
		}
	}
}
MOTION
Frames: 9
Frame Time: 0.008333333333333333
8.704300 16.319100 30.482200 -179.663000 0.908500 -151.922000 0.000000 0.000000 0.000000 -16.434400 -16.575800 -20.576500 0.129400 2.319000 6.388000 0.226100 1.714300 -9.779100 3.415400 -11.338900 -33.431400 0.000000 0.000000 0.000000 16.866000 15.043700 -21.939000 -0.183000 -2.755500 7.598900 -1.984300 -0.162900 -26.731900 -1.657800 8.113600 -23.059600 -3.779600 -2.094600 -30.059100 -0.122700 -0.468800 -2.801500 1.832600 0.012400 12.704500 -3.504800 -2.909300 0.984800 6.546300 -2.985900 -10.794400 2.893500 -1.388400 -3.532800 -0.000000 -0.000000 0.000000 3.923900 -1.415700 -22.232500 11.720000 -19.383300 2.008400 20.934000 1.432800 14.194700 0.000000 0.000000 0.000000 -7.125000 0.000000 0.000000 -4.446000 14.858400 -3.167000 -0.000000 -0.000000 0.000000 2.141400 2.277800 8.980500 -15.243900 -24.484800 -3.326400 -12.767700 12.733100 55.068800 0.000000 0.000000 0.000000 7.125000 0.000000 -0.000000 74.861300 76.480100 -61.056500
8.706236 16.321387 30.481936 -179.678836 0.878851 -151.925519 0.000000 0.000000 0.000000 -16.485692 -16.276316 -20.761874 0.135031 2.368093 6.524193 0.220821 1.433732 -9.519823 3.385223 -11.294030 -33.277963 0.000000 0.000000 0.000000 16.831336 15.151915 -21.878470 -0.181064 -2.740719 7.557725 -1.991250 -0.208474 -26.794102 -1.470843 7.661735 -21.692391 -3.832476 -2.108413 -29.977103 -0.106600 -0.472319 -2.840651 1.877734 0.011344 12.624790 -3.544743 -2.895399 1.095303 6.585099 -2.962761 -10.872526 2.919102 -1.377930 -3.582069 0.000000 0.000000 0.000000 4.065372 -1.511598 -22.389368 11.688063 -19.335175 1.997842 20.139365 2.628448 13.013305 0.000000 0.000000 0.000000 -7.125000 0.000000 0.000000 -4.947926 16.183642 -3.383519 0.000000 0.000000 0.000000 2.114566 2.345545 8.994225 -15.254018 -24.498789 -3.330535 -12.826735 12.699756 55.175080 0.000000 0.000000 0.000000 7.125000 0.000000 0.000000 75.296537 76.517316 -61.514524
8.707260 16.322384 30.479089 -179.705307 0.857405 -151.979932 0.000000 0.000000 0.000000 -16.543061 -16.177367 -20.722102 0.134585 2.364621 6.514467 0.217214 1.364940 -9.410871 3.358160 -11.253414 -33.139338 0.000000 0.000000 0.000000 16.838754 15.084056 -21.818319 -0.180572 -2.737029 7.547542 -1.995238 -0.193355 -26.815893 -1.496953 7.728144 -21.891552 -3.875097 -2.115541 -29.848466 -0.094905 -0.473332 -2.888993 1.913752 0.012491 12.513937 -3.581723 -2.895095 1.261408 6.614935 -2.959752 -10.979441 2.944097 -1.378551 -3.651239 0.000000 0.000000 0.000000 4.097157 -1.487783 -22.840277 11.621109 -19.233954 1.975739 20.267871 1.748262 12.897096 0.000000 0.000000 0.000000 -7.125000 0.000000 0.000000 -4.854098 16.294893 -3.309111 0.000000 0.000000 0.000000 2.077326 2.485299 8.999898 -15.273934 -24.526374 -3.338848 -12.847333 12.629798 55.167116 0.000000 0.000000 0.000000 7.125000 0.000000 0.000000 75.260215 76.523995 -61.486936
8.707692 16.322344 30.475706 -179.698294 0.836171 -152.039200 0.000000 0.000000 0.000000 -16.572044 -16.053243 -20.689735 0.135671 2.373932 6.540155 0.218602 1.253891 -9.381781 3.466695 -11.413667 -33.689324 0.000000 0.000000 0.000000 16.886782 15.007579 -21.754457 -0.181203 -2.741807 7.560806 -1.999653 -0.125793 -26.823041 -1.505052 7.748431 -21.952637 -3.868589 -2.110678 -29.752731 -0.089854 -0.476889 -2.904838 1.914632 0.011493 12.454103 -3.570408 -2.897710 1.361439 6.624810 -2.957434 -11.069748 2.950836 -1.378816 -3.702522 0.000000 0.000000 0.000000 4.123671 -1.486075 -22.710530 11.624766 -19.239551 1.976937 19.912776 2.464568 12.590997 0.000000 0.000000 0.000000 -7.125000 0.000000 0.000000 -5.091389 16.649214 -3.431638 0.000000 0.000000 0.000000 2.074053 2.563685 8.974245 -15.278905 -24.533221 -3.340916 -12.865431 12.626492 55.153862 0.000000 0.000000 0.000000 7.125000 0.000000 0.000000 75.201958 76.528976 -61.436596
8.708631 16.322044 30.474092 -179.655214 0.833582 -152.095710 0.000000 0.000000 0.000000 -16.531686 -16.005438 -20.621783 0.134942 2.367553 6.522525 0.219277 1.260873 -9.398801 3.492697 -11.452673 -33.822478 0.000000 0.000000 0.000000 16.956351 15.074992 -21.684503 -0.184248 -2.764685 7.624395 -1.993656 -0.216731 -26.812810 -1.540430 7.834194 -22.212015 -3.831861 -2.097551 -29.598675 -0.110143 -0.489807 -3.101994 1.931191 -0.001086 12.571063 -3.544278 -2.899160 1.362552 6.619043 -2.950648 -11.133821 2.945660 -1.374343 -3.725959 0.000000 0.000000 0.000000 4.177209 -1.422802 -22.746365 11.675123 -19.315673 1.993553 19.849843 2.790943 12.600223 0.000000 0.000000 0.000000 -7.125000 0.000000 0.000000 -5.134836 16.645669 -3.462344 0.000000 0.000000 0.000000 2.098085 2.551683 8.934334 -15.268120 -24.518274 -3.336443 -12.887315 12.692789 55.171739 0.000000 0.000000 0.000000 7.125000 0.000000 0.000000 75.273581 76.539599 -61.517081
8.710397 16.322738 30.474618 -179.600656 0.858073 -152.127596 0.000000 0.000000 0.000000 -16.445605 -15.990026 -20.600232 0.134976 2.368028 6.523930 0.218700 1.321657 -9.418637 3.399562 -11.314653 -33.349387 0.000000 0.000000 0.000000 17.017929 15.242303 -21.673986 -0.190171 -2.808476 7.746103 -1.673206 -1.165769 -24.769542 -2.081315 8.924728 -25.637224 -3.805664 -2.090755 -29.440436 -0.117831 -0.509456 -3.284477 1.960297 -0.017187 12.669522 -3.524776 -2.899839 1.307931 6.612959 -2.940253 -11.190468 2.939623 -1.366131 -3.736148 0.000000 0.000000 0.000000 4.257294 -1.254263 -23.409148 11.735395 -19.406622 2.013518 20.360097 1.451988 13.303376 0.000000 0.000000 0.000000 -7.125000 0.000000 0.000000 -4.807125 15.855761 -3.318349 0.000000 0.000000 0.000000 2.119931 2.507514 8.911480 -15.252296 -24.496362 -3.329867 -12.917995 12.800281 55.209734 0.000000 0.000000 0.000000 7.125000 0.000000 0.000000 75.428514 76.556237 -61.684116
8.712430 16.324585 30.475616 -179.561703 0.898857 -152.113830 0.000000 0.000000 0.000000 -16.358356 -15.981247 -20.665093 0.137284 2.388309 6.580103 0.218533 1.359637 -9.435952 3.339889 -11.225697 -33.045039 0.000000 0.000000 0.000000 17.046978 15.372605 -21.753807 -0.196459 -2.854339 7.873489 -1.194686 -2.481099 -21.677481 -2.953253 10.613242 -30.992305 -3.810024 -2.097436 -29.375974 -0.094063 -0.527073 -3.285459 1.982998 -0.027147 12.636236 -3.508381 -2.889822 1.239606 6.600815 -2.917786 -11.227311 2.930758 -1.351698 -3.737494 0.000000 0.000000 0.000000 4.333769 -1.083620 -24.162635 11.811843 -19.521773 2.039046 20.881669 0.221397 13.617482 0.000000 0.000000 0.000000 -7.125000 0.000000 0.000000 -4.459174 15.474691 -3.117641 0.000000 0.000000 0.000000 2.123790 2.476724 8.905076 -15.236304 -24.474223 -3.323224 -12.955562 12.919783 55.234635 0.000000 0.000000 0.000000 7.125000 0.000000 0.000000 75.527844 76.573708 -61.798717
8.714117 16.326385 30.475178 -179.552917 0.934122 -152.063912 0.000000 0.000000 0.000000 -16.300277 -16.050563 -20.710381 0.137548 2.390796 6.586926 0.218354 1.438913 -9.474210 3.424030 -11.351461 -33.474796 0.000000 0.000000 0.000000 17.032690 15.413312 -21.851950 -0.199390 -2.875464 7.932122 -1.177371 -2.639059 -21.603067 -3.237152 11.069389 -32.514271 -3.830532 -2.108258 -29.393287 -0.085123 -0.535340 -3.281326 2.001868 -0.032716 12.650959 -3.492063 -2.859060 1.151831 6.566462 -2.877534 -11.190222 2.911166 -1.329319 -3.710281 0.000000 0.000000 0.000000 4.371288 -1.052076 -24.242687 11.891127 -19.641162 2.065600 20.983045 1.010825 12.544660 0.000000 0.000000 0.000000 -7.125000 0.000000 0.000000 -4.348141 16.599554 -2.932003 0.000000 0.000000 0.000000 2.133373 2.439473 8.872039 -15.215297 -24.445179 -3.314555 -12.984161 13.025176 55.215043 0.000000 0.000000 0.000000 7.125000 0.000000 0.000000 75.441842 76.581825 -61.725161
8.715884 16.328008 30.473977 -179.582725 0.949055 -152.019042 0.000000 0.000000 0.000000 -16.326603 -15.999152 -20.788059 0.137681 2.391859 6.590009 0.219512 1.372182 -9.460451 3.514960 -11.485350 -33.934951 0.000000 0.000000 0.000000 16.971900 15.460747 -21.892901 -0.200554 -2.883798 7.955453 -1.180957 -2.639470 -21.633929 -3.190567 10.997376 -32.271026 -3.853060 -2.115191 -29.415642 -0.113993 -0.532570 -3.268185 1.982661 -0.032742 12.677904 -3.498748 -2.841720 1.035131 6.558077 -2.861009 -11.076718 2.902488 -1.319935 -3.648713 0.000000 0.000000 0.000000 4.394136 -1.060275 -24.465924 11.798311 -19.501518 2.034438 21.460707 -0.535243 13.442864 0.000000 0.000000 0.000000 -7.125000 0.000000 0.000000 -4.052622 15.600138 -2.820672 0.000000 0.000000 0.000000 2.204289 2.380870 8.785309 -15.192935 -24.414208 -3.305273 -12.989241 13.086029 55.145313 0.000000 0.000000 0.000000 7.125000 0.000000 0.000000 75.148092 76.574253 -61.435149
